<svg xmlns="http://www.w3.org/2000/svg" viewBox="0 0 496 496" style="enable-background:new 0 0 496 496" xml:space="preserve"><path d="M80 392c-13.232 0-24 10.768-24 24s10.768 24 24 24 24-10.768 24-24-10.768-24-24-24zm0 32c-4.416 0-8-3.584-8-8s3.584-8 8-8 8 3.584 8 8-3.584 8-8 8zM440 136V80h16V64H328v16h16v56h-56v64h24v296h16V200h16v200c0 26.472 21.528 48 48 48s48-21.528 48-48V200h16v296h16V200h24v-64h-56zm-80-56h64v56h-64V80zm64 320c0 17.648-14.352 32-32 32-12.104 0-22.536-6.832-27.968-16.768C384.464 411.44 400 393.512 400 372c0-22.904-17.608-41.768-40-43.8V256h20.448c-2.752 4.728-4.448 10.144-4.448 16 0 17.648 14.352 32 32 32 5.856 0 11.272-1.696 16-4.448V400zm-64-.408v-55.184c13.536 1.96 24 13.528 24 27.592s-10.464 25.632-24 27.592zM408 288c-8.824 0-16-7.176-16-16s7.176-16 16-16 16 7.176 16 16-7.176 16-16 16zm16-48h-64v-40h64v40zm56-56H304v-32h176v32zM408 40c0-13.232-10.768-24-24-24s-24 10.768-24 24 10.768 24 24 24 24-10.768 24-24zm-24 8c-4.416 0-8-3.584-8-8s3.584-8 8-8 8 3.584 8 8-3.584 8-8 8zM448 40c22.056 0 40-17.944 40-40h-16c0 13.232-10.768 24-24 24s-24-10.768-24-24h-16c0 22.056 17.944 40 40 40z"/><path d="M176 230.144V40h16V24h-48V0h-16v24H80v16h16v190.144C39.168 247.584 0 300.12 0 360c0 74.992 61.008 136 136 136s136-61.008 136-136c0-59.88-39.168-112.416-96-129.856zM256 360c0 66.168-53.832 120-120 120S16 426.168 16 360c0-5.416.464-10.744 1.168-16h127.64c3.72 18.232 19.872 32 39.192 32s35.472-13.768 39.192-32h31.64c.704 5.256 1.168 10.584 1.168 16zm-94.528-16h45.056c-3.312 9.288-12.112 16-22.528 16s-19.216-6.712-22.528-16zM20.416 328c11.24-40.52 43.288-73.152 85.584-84.056l6-1.552V40h48v202.392l6 1.552c42.296 10.904 74.344 43.536 85.584 84.056H20.416z"/></svg>