<?xml version="1.0" encoding="iso-8859-1"?>
<!-- Generator: Adobe Illustrator 19.0.0, SVG Export Plug-In . SVG Version: 6.00 Build 0)  -->
<svg version="1.1" id="Capa_1" xmlns="http://www.w3.org/2000/svg" xmlns:xlink="http://www.w3.org/1999/xlink" x="0px" y="0px"
	 viewBox="0 0 489.999 489.999" style="enable-background:new 0 0 489.999 489.999;" xml:space="preserve">
<g>
	<path d="M258.742,69.599H15.843v232.19h242.899V69.599z M237.438,280.484H37.147V90.903h200.29V280.484z"/>
	<path d="M317.724,148.408v72.802h105.502l-58.452-72.802H317.724z M339.029,199.906v-30.194h15.531l24.249,30.194H339.029z"/>
	<path d="M468.415,345.437V211.749l-89.295-107.77h-99.313v241.458h-85.343c-8.26-19.017-27.216-32.355-49.235-32.355
		c-22.018,0-40.975,13.338-49.235,32.355H0v21.304h91.573c0.001,29.589,24.072,53.659,53.656,53.659
		c29.585,0,53.655-24.07,53.656-53.659H320.46c0.001,29.589,24.072,53.659,53.656,53.659c29.585,0,53.655-24.07,53.656-53.659
		h62.228v-21.304H468.415z M145.229,399.096c-17.84,0-32.352-14.517-32.352-32.357c0-17.841,14.511-32.353,32.352-32.353
		s32.352,14.511,32.352,32.353C177.581,384.58,163.07,399.096,145.229,399.096z M374.116,399.096
		c-17.84,0-32.352-14.517-32.352-32.357c0-17.841,14.511-32.353,32.352-32.353c17.84,0,32.352,14.511,32.352,32.353
		C406.467,384.58,391.956,399.096,374.116,399.096z M447.111,345.437h-23.76c-8.26-19.017-27.216-32.355-49.235-32.355
		c-22.018,0-40.974,13.338-49.235,32.355h-23.77V125.283h68.001l77.998,94.143V345.437z"/>
	<path d="M70.155,215.9h63.226v19.598c0.45,12.139,13.628,12.35,17.434,8.218l60.387-49.802c2.869-2.178,7.229-9.996,0-16.436
		l-60.387-49.806c-4.941-4.551-16.639-3.217-17.434,8.218v19.603H70.155c-5.888,0-10.652,4.769-10.652,10.652v39.103
		C59.503,211.13,64.267,215.9,70.155,215.9z M80.807,176.797h63.226c5.889,0,10.652-4.77,10.652-10.652v-7.662l32.997,27.213
		l-32.997,27.207v-7.655c0-5.883-4.764-10.652-10.652-10.652H80.807V176.797z"/>
</g>
<g>
</g>
<g>
</g>
<g>
</g>
<g>
</g>
<g>
</g>
<g>
</g>
<g>
</g>
<g>
</g>
<g>
</g>
<g>
</g>
<g>
</g>
<g>
</g>
<g>
</g>
<g>
</g>
<g>
</g>
</svg>
