<?xml version='1.0' encoding='iso-8859-1'?>
<svg version="1.1" xmlns="http://www.w3.org/2000/svg" viewBox="0 0 463 463" xmlns:xlink="http://www.w3.org/1999/xlink" enable-background="new 0 0 463 463">
  <g>
    <path d="m462.992,271.728c0-0.076 0.008-0.152 0.008-0.228 0-0.041-0.005-0.081-0.006-0.122-0.003-0.156-0.011-0.312-0.024-0.468-0.008-0.104-0.017-0.206-0.029-0.309-0.016-0.13-0.037-0.26-0.06-0.391-0.022-0.129-0.047-0.257-0.076-0.384-0.023-0.102-0.05-0.202-0.078-0.303-0.041-0.15-0.085-0.299-0.135-0.445-0.013-0.04-0.022-0.079-0.036-0.119l-68.983-191.62c12.443-4.213 21.427-15.992 21.427-29.839 0-4.142-3.357-7.5-7.5-7.5s-7.5,3.358-7.5,7.5c0,9.098-7.402,16.5-16.5,16.5-24.528,0-41.674-7.071-59.827-14.557-19.474-8.031-39.571-16.318-69.872-17.337-2.321-6.983-7.833-12.517-14.801-14.871v-9.735c0-4.142-3.357-7.5-7.5-7.5s-7.5,3.358-7.5,7.5v9.734c-6.968,2.354-12.48,7.888-14.801,14.871-30.301,1.019-50.397,9.306-69.872,17.337-18.153,7.487-35.299,14.558-59.827,14.558-9.098,0-16.5-7.402-16.5-16.5 0-4.142-3.357-7.5-7.5-7.5s-7.5,3.358-7.5,7.5c0,13.847 8.984,25.626 21.427,29.839l-68.984,191.62c-0.014,0.039-0.023,0.079-0.036,0.119-0.05,0.146-0.094,0.295-0.135,0.445-0.028,0.101-0.055,0.202-0.078,0.303-0.029,0.127-0.053,0.255-0.076,0.384-0.023,0.13-0.044,0.26-0.06,0.391-0.012,0.102-0.021,0.205-0.029,0.309-0.012,0.156-0.021,0.313-0.024,0.468 0,0.041-0.005,0.081-0.005,0.122 0,0.076 0.008,0.152 0.008,0.228 0.003,0.085 0.003,0.171 0.009,0.256 0.18,15.223 8.824,29.306 24.411,39.698 14.817,9.878 34.376,15.318 55.072,15.318s40.255-5.44 55.072-15.318c15.586-10.392 24.23-24.474 24.411-39.698 0.006-0.085 0.006-0.171 0.009-0.256 0-0.076 0.008-0.152 0.008-0.228 0-0.041-0.005-0.081-0.006-0.122-0.003-0.156-0.011-0.312-0.024-0.468-0.008-0.104-0.017-0.206-0.029-0.309-0.016-0.13-0.037-0.26-0.06-0.391-0.022-0.129-0.047-0.257-0.076-0.384-0.023-0.102-0.05-0.202-0.078-0.303-0.041-0.15-0.085-0.299-0.135-0.445-0.013-0.04-0.022-0.079-0.036-0.119l-68.533-190.37c22.088-1.71 38.799-8.589 55.022-15.279 18.105-7.467 36.79-15.167 64.229-16.191 2.364,6.877 7.832,12.318 14.725,14.647v219.469c-9.29,3.138-16,11.93-16,22.266 0,6.177 2.399,11.801 6.31,16-3.911,4.199-6.31,9.823-6.31,16v80.499h-32.5c-12.958,0-23.5,10.542-23.5,23.5v16c0,4.142 3.357,7.5 7.5,7.5h144c4.143,0 7.5-3.358 7.5-7.5v-16c0-12.958-10.542-23.5-23.5-23.5h-32.499v-80.5c0-6.177-2.399-11.801-6.31-16 3.911-4.199 6.31-9.823 6.31-16 0-10.336-6.71-19.128-16-22.266v-219.468c6.894-2.329 12.361-7.77 14.725-14.647 27.439,1.025 46.123,8.725 64.229,16.191 16.223,6.69 32.935,13.569 55.022,15.279l-68.533,190.37c-0.014,0.039-0.023,0.079-0.036,0.119-0.05,0.146-0.094,0.295-0.135,0.445-0.028,0.101-0.055,0.202-0.078,0.303-0.029,0.127-0.053,0.255-0.076,0.384-0.023,0.13-0.044,0.26-0.06,0.391-0.012,0.102-0.021,0.205-0.029,0.309-0.012,0.156-0.021,0.313-0.024,0.468-0.001,0.041-0.006,0.081-0.006,0.122 0,0.076 0.008,0.152 0.008,0.228 0.003,0.085 0.003,0.171 0.009,0.256 0.18,15.223 8.824,29.306 24.411,39.698 14.818,9.878 34.377,15.318 55.073,15.318s40.255-5.44 55.072-15.318c15.586-10.392 24.23-24.474 24.411-39.698 0.006-0.085 0.006-0.171 0.009-0.256zm-383.492-178.086l61.329,170.358h-122.658l61.329-170.358zm0,218.358c-30.896,0-57.554-14.482-63.339-33h126.678c-5.785,18.518-32.443,33-63.339,33zm216.5,127.5v8.5h-129v-8.5c0-4.687 3.813-8.5 8.5-8.5h112c4.687,0 8.5,3.813 8.5,8.5zm-73-23.5v-80.5c0-4.687 3.813-8.5 8.5-8.5s8.5,3.813 8.5,8.5v80.5h-17zm8.5-104c-4.687,0-8.5-3.813-8.5-8.5s3.813-8.5 8.5-8.5 8.5,3.813 8.5,8.5-3.813,8.5-8.5,8.5zm.014-264.001c-0.005-2.13163e-14-0.01-0.001-0.014-0.001s-0.01,0.001-0.014,0.001c-4.68-0.008-8.486-3.817-8.486-8.499 0-4.679 3.801-8.485 8.476-8.499 0.008,0 0.016,0.001 0.024,0.001s0.016-0.001 0.024-0.001c4.675,0.013 8.476,3.82 8.476,8.499 0,4.682-3.806,8.491-8.486,8.499zm213.315,216.001h-122.658l61.329-170.358 61.329,170.358zm-61.329,48c-30.896,0-57.554-14.482-63.339-33h126.678c-5.785,18.518-32.443,33-63.339,33z"/>
  </g>
</svg>
